# xmcd
#
# Track frame offsets:
#	150
#	9758
#	20658
#	37478
#	52670
#	64146
#	83204
#	96202
#	114603
#	132765
#
# Disc length: 1936 seconds
#
# Revision: 1
# Processed by: cddbd v1.5.2PL0 Copyright (c) Steve Scherf et al.
# Submitted via: audiograbber 1.83.01
#
DISCID=7c078e0a
DTITLE=Tracy Lynn - My Broken Heart
DYEAR=1900
DGENRE=Country
TTITLE0=Blue Moon Of Kentucky
TTITLE1=Leavin' On Your Mind
TTITLE2=Faded Love
TTITLE3=Good As I Was To You
TTITLE4=Sweet Dreams
TTITLE5=Two Sparrows In A Hurricane
TTITLE6=She's Got You
TTITLE7=You Don't Even Know Who I Am
TTITLE8=Break It To Me Gently
TTITLE9=Wrong Night
EXTD=
EXTT0=
EXTT1=
EXTT2=
EXTT3=
EXTT4=
EXTT5=
EXTT6=
EXTT7=
EXTT8=
EXTT9=
PLAYORDER=
